<mxfile host="app.diagrams.net" modified="2023-04-24T04:22:01.964Z" agent="Mozilla/5.0 (Macintosh; Intel Mac OS X 10_15_7) AppleWebKit/537.36 (KHTML, like Gecko) Chrome/111.0.0.0 Safari/537.36" etag="72HcWjvvuETvfVdzeviU" version="21.1.1" type="github">
  <diagram name="第 1 页" id="caCFr2Vk4D042K3UBnO_">
    <mxGraphModel dx="1306" dy="726" grid="1" gridSize="10" guides="1" tooltips="1" connect="1" arrows="1" fold="1" page="1" pageScale="1" pageWidth="827" pageHeight="1169" math="0" shadow="0">
      <root>
        <mxCell id="0" />
        <mxCell id="1" parent="0" />
        <mxCell id="S8fOJkQvZu5loHgqg9Qc-12" value="add/delete" style="edgeStyle=orthogonalEdgeStyle;rounded=0;orthogonalLoop=1;jettySize=auto;html=1;exitX=0.5;exitY=1;exitDx=0;exitDy=0;" parent="1" source="S8fOJkQvZu5loHgqg9Qc-1" target="S8fOJkQvZu5loHgqg9Qc-11" edge="1">
          <mxGeometry relative="1" as="geometry" />
        </mxCell>
        <mxCell id="S8fOJkQvZu5loHgqg9Qc-1" value="feed流预发布，有一定的过滤策略，比如不要私密房、隐藏动态的" style="rounded=1;whiteSpace=wrap;html=1;strokeWidth=2;fillWeight=4;hachureGap=8;hachureAngle=45;fillColor=none;sketch=1;" parent="1" vertex="1">
          <mxGeometry x="261" y="350" width="290" height="140" as="geometry" />
        </mxCell>
        <mxCell id="S8fOJkQvZu5loHgqg9Qc-7" style="edgeStyle=orthogonalEdgeStyle;rounded=0;orthogonalLoop=1;jettySize=auto;html=1;exitX=0.5;exitY=1;exitDx=0;exitDy=0;exitPerimeter=0;" parent="1" source="S8fOJkQvZu5loHgqg9Qc-2" target="S8fOJkQvZu5loHgqg9Qc-1" edge="1">
          <mxGeometry relative="1" as="geometry" />
        </mxCell>
        <mxCell id="S8fOJkQvZu5loHgqg9Qc-2" value="麦序流水" style="shape=cylinder3;whiteSpace=wrap;html=1;boundedLbl=1;backgroundOutline=1;size=15;" parent="1" vertex="1">
          <mxGeometry x="280" y="170" width="60" height="80" as="geometry" />
        </mxCell>
        <mxCell id="S8fOJkQvZu5loHgqg9Qc-8" style="edgeStyle=orthogonalEdgeStyle;rounded=0;orthogonalLoop=1;jettySize=auto;html=1;entryX=0.5;entryY=0;entryDx=0;entryDy=0;" parent="1" source="S8fOJkQvZu5loHgqg9Qc-3" target="S8fOJkQvZu5loHgqg9Qc-1" edge="1">
          <mxGeometry relative="1" as="geometry" />
        </mxCell>
        <mxCell id="S8fOJkQvZu5loHgqg9Qc-3" value="游戏流水" style="shape=cylinder3;whiteSpace=wrap;html=1;boundedLbl=1;backgroundOutline=1;size=15;" parent="1" vertex="1">
          <mxGeometry x="470" y="170" width="60" height="80" as="geometry" />
        </mxCell>
        <mxCell id="S8fOJkQvZu5loHgqg9Qc-4" value="&lt;h1&gt;tips&lt;/h1&gt;&lt;div&gt;写流水需要顺序性，比如把相同gameid 写入一个分区&lt;/div&gt;" style="text;html=1;strokeColor=none;fillColor=none;spacing=5;spacingTop=-20;whiteSpace=wrap;overflow=hidden;rounded=0;" parent="1" vertex="1">
          <mxGeometry x="71" y="130" width="190" height="120" as="geometry" />
        </mxCell>
        <mxCell id="S8fOJkQvZu5loHgqg9Qc-5" value="ckv+" style="image;aspect=fixed;html=1;points=[];align=center;fontSize=12;image=img/lib/azure2/databases/Cache_Redis.svg;" parent="1" vertex="1">
          <mxGeometry x="670" y="394" width="64" height="52" as="geometry" />
        </mxCell>
        <mxCell id="S8fOJkQvZu5loHgqg9Qc-6" value="" style="endArrow=classic;html=1;rounded=0;entryX=0;entryY=0.5;entryDx=0;entryDy=0;entryPerimeter=0;" parent="1" target="S8fOJkQvZu5loHgqg9Qc-5" edge="1">
          <mxGeometry width="50" height="50" relative="1" as="geometry">
            <mxPoint x="550" y="420" as="sourcePoint" />
            <mxPoint x="600" y="370" as="targetPoint" />
          </mxGeometry>
        </mxCell>
        <mxCell id="S8fOJkQvZu5loHgqg9Qc-9" value="滤重" style="edgeLabel;html=1;align=center;verticalAlign=middle;resizable=0;points=[];" parent="S8fOJkQvZu5loHgqg9Qc-6" vertex="1" connectable="0">
          <mxGeometry x="0.2167" y="1" relative="1" as="geometry">
            <mxPoint as="offset" />
          </mxGeometry>
        </mxCell>
        <mxCell id="S8fOJkQvZu5loHgqg9Qc-11" value="feed服务" style="rounded=1;whiteSpace=wrap;html=1;strokeWidth=2;fillWeight=4;hachureGap=8;hachureAngle=45;fillColor=none;sketch=1;" parent="1" vertex="1">
          <mxGeometry x="346" y="585" width="120" height="60" as="geometry" />
        </mxCell>
        <mxCell id="KEBMf7AwRcN-icuR7dgX-15" style="edgeStyle=orthogonalEdgeStyle;rounded=0;orthogonalLoop=1;jettySize=auto;html=1;exitX=0.5;exitY=1;exitDx=0;exitDy=0;entryX=0.444;entryY=0.006;entryDx=0;entryDy=0;entryPerimeter=0;" edge="1" parent="1" source="KEBMf7AwRcN-icuR7dgX-1" target="KEBMf7AwRcN-icuR7dgX-14">
          <mxGeometry relative="1" as="geometry" />
        </mxCell>
        <mxCell id="KEBMf7AwRcN-icuR7dgX-16" value="查询/领取" style="edgeLabel;html=1;align=center;verticalAlign=middle;resizable=0;points=[];" vertex="1" connectable="0" parent="KEBMf7AwRcN-icuR7dgX-15">
          <mxGeometry x="-0.1184" y="-3" relative="1" as="geometry">
            <mxPoint as="offset" />
          </mxGeometry>
        </mxCell>
        <mxCell id="KEBMf7AwRcN-icuR7dgX-1" value="福利中心查询服务" style="rounded=1;whiteSpace=wrap;html=1;strokeWidth=2;fillWeight=4;hachureGap=8;hachureAngle=45;fillColor=none;sketch=1;" vertex="1" parent="1">
          <mxGeometry x="340" y="986" width="120" height="60" as="geometry" />
        </mxCell>
        <mxCell id="KEBMf7AwRcN-icuR7dgX-5" style="edgeStyle=orthogonalEdgeStyle;rounded=0;orthogonalLoop=1;jettySize=auto;html=1;entryX=1;entryY=0.5;entryDx=0;entryDy=0;" edge="1" parent="1" source="KEBMf7AwRcN-icuR7dgX-2" target="KEBMf7AwRcN-icuR7dgX-1">
          <mxGeometry relative="1" as="geometry" />
        </mxCell>
        <mxCell id="KEBMf7AwRcN-icuR7dgX-9" value="定时拉取配置" style="edgeLabel;html=1;align=center;verticalAlign=middle;resizable=0;points=[];" vertex="1" connectable="0" parent="KEBMf7AwRcN-icuR7dgX-5">
          <mxGeometry x="0.01" y="1" relative="1" as="geometry">
            <mxPoint as="offset" />
          </mxGeometry>
        </mxCell>
        <mxCell id="KEBMf7AwRcN-icuR7dgX-2" value="ckv+" style="image;aspect=fixed;html=1;points=[];align=center;fontSize=12;image=img/lib/azure2/databases/Cache_Redis.svg;" vertex="1" parent="1">
          <mxGeometry x="660" y="990" width="64" height="52" as="geometry" />
        </mxCell>
        <mxCell id="KEBMf7AwRcN-icuR7dgX-4" style="edgeStyle=orthogonalEdgeStyle;rounded=0;orthogonalLoop=1;jettySize=auto;html=1;exitX=0.5;exitY=1;exitDx=0;exitDy=0;" edge="1" parent="1" source="KEBMf7AwRcN-icuR7dgX-3" target="KEBMf7AwRcN-icuR7dgX-2">
          <mxGeometry relative="1" as="geometry" />
        </mxCell>
        <mxCell id="KEBMf7AwRcN-icuR7dgX-8" value="更新" style="edgeLabel;html=1;align=center;verticalAlign=middle;resizable=0;points=[];" vertex="1" connectable="0" parent="KEBMf7AwRcN-icuR7dgX-4">
          <mxGeometry x="-0.1111" relative="1" as="geometry">
            <mxPoint as="offset" />
          </mxGeometry>
        </mxCell>
        <mxCell id="KEBMf7AwRcN-icuR7dgX-3" value="红石" style="ellipse;shape=doubleEllipse;whiteSpace=wrap;html=1;" vertex="1" parent="1">
          <mxGeometry x="642" y="840" width="100" height="60" as="geometry" />
        </mxCell>
        <mxCell id="KEBMf7AwRcN-icuR7dgX-7" value="操作" style="edgeStyle=orthogonalEdgeStyle;rounded=0;orthogonalLoop=1;jettySize=auto;html=1;exitX=1;exitY=0.3333333333333333;exitDx=0;exitDy=0;exitPerimeter=0;" edge="1" parent="1" source="KEBMf7AwRcN-icuR7dgX-6" target="KEBMf7AwRcN-icuR7dgX-3">
          <mxGeometry relative="1" as="geometry" />
        </mxCell>
        <mxCell id="KEBMf7AwRcN-icuR7dgX-19" value="操作" style="edgeStyle=orthogonalEdgeStyle;rounded=0;orthogonalLoop=1;jettySize=auto;html=1;exitX=0;exitY=0.3333333333333333;exitDx=0;exitDy=0;exitPerimeter=0;" edge="1" parent="1" source="KEBMf7AwRcN-icuR7dgX-6" target="KEBMf7AwRcN-icuR7dgX-10">
          <mxGeometry relative="1" as="geometry" />
        </mxCell>
        <mxCell id="KEBMf7AwRcN-icuR7dgX-6" value="Actor" style="shape=umlActor;verticalLabelPosition=bottom;verticalAlign=top;html=1;outlineConnect=0;" vertex="1" parent="1">
          <mxGeometry x="414" y="710" width="40" height="60" as="geometry" />
        </mxCell>
        <mxCell id="KEBMf7AwRcN-icuR7dgX-11" style="edgeStyle=orthogonalEdgeStyle;rounded=0;orthogonalLoop=1;jettySize=auto;html=1;exitX=0.5;exitY=1;exitDx=0;exitDy=0;entryX=0;entryY=0.5;entryDx=0;entryDy=0;" edge="1" parent="1" source="KEBMf7AwRcN-icuR7dgX-10" target="KEBMf7AwRcN-icuR7dgX-1">
          <mxGeometry relative="1" as="geometry" />
        </mxCell>
        <mxCell id="KEBMf7AwRcN-icuR7dgX-12" value="定时拉取更新" style="edgeLabel;html=1;align=center;verticalAlign=middle;resizable=0;points=[];" vertex="1" connectable="0" parent="KEBMf7AwRcN-icuR7dgX-11">
          <mxGeometry x="-0.0701" y="2" relative="1" as="geometry">
            <mxPoint as="offset" />
          </mxGeometry>
        </mxCell>
        <mxCell id="KEBMf7AwRcN-icuR7dgX-10" value="画像平台白名单" style="ellipse;shape=doubleEllipse;whiteSpace=wrap;html=1;" vertex="1" parent="1">
          <mxGeometry x="120" y="835" width="120" height="70" as="geometry" />
        </mxCell>
        <mxCell id="KEBMf7AwRcN-icuR7dgX-13" value="各种活动白名单/福利中心本身白名单" style="text;html=1;strokeColor=none;fillColor=none;align=center;verticalAlign=middle;whiteSpace=wrap;rounded=0;" vertex="1" parent="1">
          <mxGeometry x="100" y="805" width="120" height="30" as="geometry" />
        </mxCell>
        <mxCell id="KEBMf7AwRcN-icuR7dgX-14" value="" style="rounded=1;whiteSpace=wrap;html=1;" vertex="1" parent="1">
          <mxGeometry x="210" y="1140" width="430" height="230" as="geometry" />
        </mxCell>
        <mxCell id="KEBMf7AwRcN-icuR7dgX-17" value="&lt;h3 style=&quot;margin: 24px 0px 12px; padding: 0px; color: rgb(32, 35, 40); font-weight: var(--font-bold); line-height: calc(28px); letter-spacing: -0.006em; font-family: -apple-system, &amp;quot;PingFang SC&amp;quot;, &amp;quot;Microsoft YaHei&amp;quot;, &amp;quot;Hiragino Sans GB&amp;quot;, &amp;quot;Source Han Sans SC&amp;quot;, &amp;quot;Helvetica Neue&amp;quot;, Helvetica, Arial, &amp;quot;Segoe UI&amp;quot;; text-align: start; background-color: rgb(255, 255, 255);&quot; id=&quot;id-福利中心-ktv_gift_back礼物回馈&quot;&gt;&lt;font style=&quot;font-size: 10px;&quot;&gt;ktv_gift_back&lt;/font&gt;&lt;/h3&gt;" style="ellipse;whiteSpace=wrap;html=1;" vertex="1" parent="1">
          <mxGeometry x="240" y="1160" width="99" height="50" as="geometry" />
        </mxCell>
        <mxCell id="KEBMf7AwRcN-icuR7dgX-18" value="&lt;h3 style=&quot;margin: 24px 0px 12px; padding: 0px; color: rgb(32, 35, 40); font-weight: var(--font-bold); line-height: calc(28px); letter-spacing: -0.006em; font-family: -apple-system, &amp;quot;PingFang SC&amp;quot;, &amp;quot;Microsoft YaHei&amp;quot;, &amp;quot;Hiragino Sans GB&amp;quot;, &amp;quot;Source Han Sans SC&amp;quot;, &amp;quot;Helvetica Neue&amp;quot;, Helvetica, Arial, &amp;quot;Segoe UI&amp;quot;; text-align: start; background-color: rgb(255, 255, 255);&quot; id=&quot;id-福利中心-ktv_sing_battle_level战令&quot;&gt;&lt;font style=&quot;font-size: 10px;&quot;&gt;ktv_sing_battle_level&lt;/font&gt;&lt;/h3&gt;" style="ellipse;whiteSpace=wrap;html=1;" vertex="1" parent="1">
          <mxGeometry x="359" y="1150" width="150" height="50" as="geometry" />
        </mxCell>
        <mxCell id="KEBMf7AwRcN-icuR7dgX-20" value="&lt;h3 style=&quot;margin: 24px 0px 12px; padding: 0px; color: rgb(32, 35, 40); font-weight: var(--font-bold); line-height: calc(28px); letter-spacing: -0.006em; font-family: -apple-system, &amp;quot;PingFang SC&amp;quot;, &amp;quot;Microsoft YaHei&amp;quot;, &amp;quot;Hiragino Sans GB&amp;quot;, &amp;quot;Source Han Sans SC&amp;quot;, &amp;quot;Helvetica Neue&amp;quot;, Helvetica, Arial, &amp;quot;Segoe UI&amp;quot;; text-align: start; background-color: rgb(255, 255, 255);&quot; id=&quot;id-福利中心-ktv_gift_collection_svr礼物收集&quot;&gt;&lt;font style=&quot;font-size: 10px;&quot;&gt;ktv_gift_collection_svr&lt;/font&gt;&lt;/h3&gt;" style="ellipse;whiteSpace=wrap;html=1;" vertex="1" parent="1">
          <mxGeometry x="250" y="1220" width="150" height="50" as="geometry" />
        </mxCell>
        <mxCell id="KEBMf7AwRcN-icuR7dgX-21" value="&lt;h3 style=&quot;margin: 24px 0px 12px; padding: 0px; color: rgb(32, 35, 40); font-size: 10px; font-weight: var(--font-bold); line-height: calc(28px); letter-spacing: -0.006em; font-family: -apple-system, &amp;quot;PingFang SC&amp;quot;, &amp;quot;Microsoft YaHei&amp;quot;, &amp;quot;Hiragino Sans GB&amp;quot;, &amp;quot;Source Han Sans SC&amp;quot;, &amp;quot;Helvetica Neue&amp;quot;, Helvetica, Arial, &amp;quot;Segoe UI&amp;quot;; text-align: start; background-color: rgb(255, 255, 255);&quot; id=&quot;id-福利中心-gift_saving_card_query_svr周卡&quot;&gt;gift_saving_card_query_svr&lt;/h3&gt;" style="ellipse;whiteSpace=wrap;html=1;" vertex="1" parent="1">
          <mxGeometry x="414" y="1220" width="150" height="50" as="geometry" />
        </mxCell>
        <mxCell id="KEBMf7AwRcN-icuR7dgX-22" value="&lt;h3 style=&quot;margin: 24px 0px 12px; padding: 0px; color: rgb(32, 35, 40); font-size: 10px; font-weight: var(--font-bold); line-height: calc(28px); letter-spacing: -0.006em; font-family: -apple-system, &amp;quot;PingFang SC&amp;quot;, &amp;quot;Microsoft YaHei&amp;quot;, &amp;quot;Hiragino Sans GB&amp;quot;, &amp;quot;Source Han Sans SC&amp;quot;, &amp;quot;Helvetica Neue&amp;quot;, Helvetica, Arial, &amp;quot;Segoe UI&amp;quot;; text-align: start; background-color: rgb(255, 255, 255);&quot; id=&quot;id-福利中心-ktv_520_popularity_activity_svr好人缘&quot;&gt;ktv_520_popularity_activity_svr&lt;/h3&gt;" style="ellipse;whiteSpace=wrap;html=1;" vertex="1" parent="1">
          <mxGeometry x="240" y="1290" width="150" height="50" as="geometry" />
        </mxCell>
        <mxCell id="KEBMf7AwRcN-icuR7dgX-23" value="&lt;h3 style=&quot;margin: 24px 0px 12px; padding: 0px; color: rgb(32, 35, 40); font-size: 10px; font-weight: var(--font-bold); line-height: calc(28px); letter-spacing: -0.006em; font-family: -apple-system, &amp;quot;PingFang SC&amp;quot;, &amp;quot;Microsoft YaHei&amp;quot;, &amp;quot;Hiragino Sans GB&amp;quot;, &amp;quot;Source Han Sans SC&amp;quot;, &amp;quot;Helvetica Neue&amp;quot;, Helvetica, Arial, &amp;quot;Segoe UI&amp;quot;; text-align: start; background-color: rgb(255, 255, 255);&quot; id=&quot;id-福利中心-ktv_gift_construct盖楼&quot;&gt;ktv_gift_construct&lt;/h3&gt;" style="ellipse;whiteSpace=wrap;html=1;" vertex="1" parent="1">
          <mxGeometry x="414" y="1300" width="150" height="50" as="geometry" />
        </mxCell>
      </root>
    </mxGraphModel>
  </diagram>
</mxfile>
